<?xml version="1.0" encoding="UTF-8"?>
<svg id="Capa_1" data-name="Capa 1" xmlns="http://www.w3.org/2000/svg" viewBox="0 0 850.32 220.08">
  <defs>
    <style>
      .cls-1 {
        fill: #27b3b3;
      }

      .cls-2 {
        fill: #3d3d3c;
      }
    </style>
  </defs>
  <path class="cls-1" d="M411.64,92.87v16.95h-1.01l-11.56-14.72v14.72h-1.21v-16.95h1.04l11.51,14.72v-14.72h1.23Z"/>
  <path class="cls-1" d="M425.09,98.29c.89.94,1.35,2.22,1.26,3.51v8.02h-1.26v-2.25c-.4.74-1,1.34-1.74,1.74-.86.43-1.82.64-2.78.61-1.19.07-2.37-.28-3.33-.98-1.45-1.22-1.64-3.39-.41-4.84.1-.12.21-.23.32-.34,1.04-.74,2.31-1.09,3.59-.98h4.36v-1.03c.07-.99-.27-1.96-.95-2.68-.77-.66-1.78-1-2.8-.92-.82,0-1.64.14-2.41.44-.72.25-1.38.64-1.95,1.15l-.61-.86c.65-.59,1.43-1.04,2.27-1.32.89-.32,1.84-.48,2.78-.48,1.33-.09,2.65.35,3.66,1.23ZM423.47,108.2c.75-.52,1.33-1.25,1.66-2.1v-2.38h-4.31c-.95-.08-1.9.16-2.69.68-.59.44-.93,1.14-.91,1.88-.02.76.32,1.49.92,1.95.76.51,1.67.76,2.59.71.95.03,1.88-.23,2.68-.74h.06Z"/>
  <path class="cls-1" d="M437.55,109.02c-.33.3-.72.53-1.15.67-.49.16-1,.24-1.51.23-1.73.17-3.27-1.1-3.43-2.83-.02-.2-.02-.4,0-.6v-8.25h-2.31v-1.03h2.31v-2.78h1.21v2.78h4.02v1.04h-4.02v8.12c-.05.68.16,1.35.59,1.88.46.46,1.1.7,1.76.65.72.03,1.43-.23,1.97-.71l.57.83Z"/>
  <path class="cls-1" d="M448.77,98.29c.9.94,1.36,2.21,1.26,3.51v8.02h-1.15v-2.25c-.41.74-1.02,1.34-1.77,1.74-.86.43-1.82.63-2.78.61-1.19.07-2.37-.28-3.33-.98-.81-.64-1.26-1.62-1.23-2.65-.03-.98.38-1.92,1.12-2.56,1.05-.74,2.32-1.09,3.6-.98h4.33v-1c.07-.99-.27-1.96-.95-2.68-.77-.67-1.78-1-2.8-.92-.82,0-1.64.14-2.41.44-.72.26-1.38.65-1.95,1.15l-.61-.86c.66-.59,1.44-1.04,2.28-1.32.89-.32,1.83-.49,2.78-.48,1.31-.08,2.61.36,3.6,1.23ZM447.17,108.2c.75-.52,1.33-1.25,1.65-2.1v-2.38h-4.3c-.95-.08-1.91.16-2.71.68-.56.46-.87,1.15-.83,1.88-.03.76.32,1.49.92,1.95.76.52,1.67.77,2.59.71.95.02,1.88-.24,2.68-.74Z"/>
  <path class="cls-1" d="M455.02,91.86h1.21v17.96h-1.21v-17.96Z"/>
  <path class="cls-1" d="M461.24,93.83c-.19-.17-.3-.42-.29-.68,0-.27.1-.52.29-.71.19-.19.44-.3.71-.29.26,0,.51.09.7.27.19.18.29.43.29.7,0,.26-.1.52-.29.7-.38.39-1,.4-1.39.02,0,0-.01-.01-.02-.02v.02ZM461.41,97.2h1.21v12.63h-1.21v-12.63Z"/>
  <path class="cls-1" d="M475.52,98.29c.9.94,1.36,2.21,1.26,3.51v8.02h-1.17v-2.25c-.4.74-1.01,1.35-1.76,1.74-.86.43-1.82.63-2.78.61-1.19.07-2.37-.28-3.33-.98-.8-.63-1.25-1.6-1.23-2.62-.03-.98.38-1.92,1.12-2.56,1.05-.74,2.32-1.09,3.6-.98h4.33v-1.03c.07-.99-.27-1.96-.95-2.68-.77-.67-1.78-1-2.8-.92-.82,0-1.64.14-2.41.44-.72.25-1.38.64-1.95,1.15l-.61-.86c.66-.59,1.44-1.04,2.28-1.32.89-.32,1.83-.49,2.78-.48,1.31-.08,2.61.36,3.6,1.23ZM473.92,108.2c.75-.52,1.33-1.25,1.65-2.1v-2.38h-4.31c-.95-.08-1.9.16-2.69.68-.56.45-.87,1.14-.83,1.86-.03.76.32,1.49.92,1.95.76.52,1.67.77,2.59.71.94.03,1.88-.23,2.68-.73Z"/>
  <path class="cls-1" d="M500.49,101.42h1.18v6.37c-.77.73-1.69,1.28-2.69,1.62-1.08.38-2.22.57-3.36.56-1.58.03-3.15-.36-4.54-1.12-1.32-.7-2.41-1.75-3.18-3.03-1.52-2.74-1.52-6.07,0-8.81.76-1.28,1.86-2.33,3.18-3.03,1.39-.75,2.96-1.14,4.54-1.12,1.17-.01,2.32.19,3.42.59,1.01.38,1.92.97,2.68,1.74l-.77.82c-.68-.67-1.49-1.19-2.39-1.51-.94-.32-1.93-.48-2.92-.47-1.37-.01-2.73.32-3.93.97-1.14.62-2.09,1.55-2.74,2.68-1.32,2.35-1.32,5.22,0,7.57.69,1.08,1.65,1.95,2.78,2.54,1.2.66,2.55,1,3.92.98,1.74.08,3.45-.46,4.83-1.51v-5.84Z"/>
  <path class="cls-1" d="M506.6,93.83c-.18-.18-.29-.42-.29-.68,0-.27.1-.52.29-.71.19-.19.44-.29.71-.29.26,0,.51.09.7.27.19.18.29.43.29.7,0,.26-.1.52-.29.7-.18.2-.43.31-.7.3-.27,0-.52-.1-.71-.29ZM506.71,97.19h1.21v12.63h-1.21v-12.63Z"/>
  <path class="cls-1" d="M532.52,98.47c.97,1.09,1.45,2.52,1.35,3.96v7.38h-1.35v-7.29c.08-1.17-.29-2.33-1.04-3.24-.76-.78-1.82-1.18-2.91-1.12-1.26-.06-2.49.43-3.37,1.33-.87.99-1.31,2.27-1.24,3.59v6.73h-1.21v-7.29c.08-1.17-.29-2.33-1.04-3.24-.76-.77-1.82-1.18-2.91-1.12-1.26-.06-2.49.43-3.37,1.33-.87.99-1.32,2.27-1.26,3.59v6.73h-1.21v-12.62h1.17v2.71c.4-.87,1.06-1.59,1.88-2.07.92-.52,1.97-.77,3.03-.74,1.03-.03,2.04.25,2.92.79.81.54,1.42,1.34,1.71,2.27.41-.93,1.1-1.7,1.97-2.22.95-.56,2.03-.85,3.13-.83,1.39-.1,2.77.4,3.77,1.38Z"/>
  <path class="cls-1" d="M549.48,103.8h-10.91c0,.92.27,1.83.74,2.62.46.76,1.12,1.38,1.91,1.79,1.56.76,3.37.82,4.98.18.68-.29,1.29-.74,1.76-1.32l.71.79c-.56.67-1.27,1.19-2.07,1.51-.85.36-1.77.54-2.69.53-1.18.02-2.34-.26-3.37-.82-.97-.53-1.77-1.31-2.31-2.27-.56-1.02-.85-2.17-.83-3.33-.01-1.15.26-2.28.79-3.3.5-.95,1.25-1.74,2.16-2.28.94-.55,2.01-.84,3.1-.83,2.18-.05,4.2,1.11,5.25,3.03.53,1.01.8,2.14.79,3.28l.02.42ZM541.08,98.71c-.71.39-1.3.97-1.71,1.66-.43.74-.69,1.58-.74,2.44h9.68c-.03-.86-.28-1.69-.73-2.42-.41-.7-1-1.27-1.71-1.66-.73-.41-1.56-.62-2.41-.61-.83-.01-1.66.19-2.39.59Z"/>
  <path class="cls-1" d="M563.19,98.47c.98,1.08,1.47,2.51,1.38,3.96v7.38h-1.21v-7.29c.08-1.18-.31-2.34-1.07-3.24-.81-.78-1.91-1.18-3.03-1.12-1.3-.06-2.58.42-3.51,1.33-.88.98-1.34,2.27-1.27,3.59v6.73h-1.21v-12.62h1.15v2.72c.42-.88,1.1-1.61,1.95-2.09.93-.51,1.97-.77,3.03-.76,1.4-.08,2.78.42,3.8,1.39Z"/>
  <path class="cls-1" d="M580.26,103.8h-10.88c.01.92.28,1.83.76,2.62.46.76,1.11,1.37,1.89,1.79,1.57.76,3.38.82,4.99.18.68-.29,1.29-.74,1.76-1.32l.65.73c-.55.67-1.26,1.19-2.06,1.51-.86.36-1.78.54-2.71.53-1.17.02-2.33-.26-3.36-.82-.97-.53-1.77-1.31-2.31-2.27-.57-1.02-.86-2.16-.83-3.33.01-1.12.3-2.21.83-3.19.49-.95,1.24-1.74,2.16-2.28,1.92-1.1,4.27-1.1,6.19,0,.89.56,1.61,1.35,2.09,2.28.54,1.01.81,2.14.79,3.28l.05.29ZM571.86,98.71c-.7.39-1.29.97-1.69,1.66-.44.74-.69,1.58-.74,2.44h9.68c-.03-.86-.28-1.69-.73-2.42-.42-.7-1.01-1.27-1.72-1.66-.73-.41-1.55-.62-2.39-.61-.84-.01-1.67.19-2.41.59Z"/>
  <path class="cls-1" d="M592.45,108.78v1.04h-10v-.82l8.32-10.77h-8.2v-1.03h9.77v.82l-8.38,10.76h8.49Z"/>
  <path class="cls-2" d="M400.3,116.43h4.9c1.22-.02,2.43.26,3.51.82.98.52,1.81,1.3,2.38,2.25.57,1,.86,2.13.85,3.28.02,1.15-.27,2.28-.85,3.27-.56.97-1.39,1.75-2.38,2.27-1.08.56-2.29.84-3.51.82h-4.9v-12.71ZM405.15,128.54c1.13.02,2.25-.24,3.25-.76.9-.47,1.64-1.18,2.15-2.06,1.01-1.86,1.01-4.11,0-5.98-.5-.85-1.23-1.55-2.1-2.01-1.01-.51-2.12-.77-3.25-.74h-4.31v11.59l4.27-.05Z"/>
  <path class="cls-2" d="M422.75,124.51h-8.25c0,.75.19,1.48.56,2.13.35.63.88,1.16,1.51,1.51,1.22.62,2.65.68,3.92.17.53-.23.99-.59,1.35-1.04l.38.39c-.41.49-.93.88-1.51,1.15-.62.27-1.29.41-1.97.39-.86.02-1.7-.19-2.45-.61-.74-.4-1.36-1-1.79-1.72-.41-.76-.62-1.61-.61-2.47-.02-.86.17-1.7.56-2.47.73-1.45,2.23-2.35,3.86-2.31.79-.01,1.57.2,2.25.61.64.41,1.16.99,1.51,1.66.39.75.59,1.59.57,2.44l.09.17ZM416.42,120.68c-.57.32-1.04.79-1.36,1.36-.33.6-.53,1.28-.56,1.97h7.69c-.04-.69-.24-1.37-.59-1.97-.67-1.17-1.92-1.88-3.27-1.86-.67,0-1.33.17-1.91.5Z"/>
  <path class="cls-2" d="M425.82,128.85c-.56-.19-1.08-.5-1.51-.91l.29-.48c.44.38.96.68,1.51.86.62.23,1.29.35,1.95.35.79.06,1.57-.13,2.25-.53.5-.33.78-.91.73-1.51.02-.38-.12-.76-.39-1.03-.27-.27-.6-.46-.97-.57-.5-.15-1-.27-1.51-.36-.61-.1-1.22-.25-1.82-.44-.44-.14-.84-.39-1.15-.74-.34-.39-.51-.89-.48-1.41,0-.7.33-1.37.89-1.79.74-.53,1.65-.79,2.56-.73.6,0,1.19.09,1.76.27.51.14.99.38,1.41.7l-.3.47c-.4-.3-.84-.52-1.32-.67-.49-.15-1-.22-1.51-.23-.74-.05-1.48.14-2.1.54-.46.32-.73.85-.71,1.41-.01.4.13.8.41,1.09.28.27.62.47.98.59.53.16,1.06.28,1.6.38.6.11,1.19.25,1.77.44.43.14.82.39,1.13.71.32.38.48.87.45,1.36.02.72-.33,1.41-.92,1.82-.8.49-1.73.72-2.66.67-.79.05-1.57-.04-2.33-.26Z"/>
  <path class="cls-2" d="M434.17,117.07c-.12-.1-.19-.25-.18-.41,0-.16.06-.31.18-.42.11-.11.27-.17.42-.17.15,0,.3.06.41.17.11.11.18.25.18.41,0,.16-.06.31-.18.42-.11.11-.25.18-.41.18-.16,0-.31-.06-.42-.18ZM434.31,119.71h.59v9.43h-.59v-9.43Z"/>
  <path class="cls-2" d="M447.17,119.71v8.52c.38,2.12-1.04,4.15-3.16,4.53-.43.08-.86.08-1.29.01-.83,0-1.65-.13-2.44-.39-.68-.23-1.3-.62-1.8-1.13l.35-.45c.5.47,1.08.84,1.72,1.07.69.25,1.42.37,2.15.36,1.06.09,2.11-.25,2.92-.94.7-.81,1.04-1.86.94-2.92v-2.06c-.34.76-.9,1.4-1.6,1.83-.75.45-1.62.68-2.5.67-.83.01-1.66-.19-2.39-.59-.69-.39-1.27-.95-1.66-1.63-.81-1.48-.81-3.26,0-4.74.4-.68.97-1.24,1.66-1.62.73-.4,1.56-.6,2.39-.59.88-.02,1.75.22,2.5.68.72.43,1.3,1.08,1.63,1.85v-2.45h.57ZM444.58,127.75c.64-.35,1.16-.88,1.51-1.51.72-1.3.72-2.88,0-4.18-.36-.61-.88-1.1-1.51-1.42-1.31-.68-2.88-.68-4.19,0-.63.32-1.16.81-1.51,1.42-.7,1.3-.7,2.87,0,4.18.35.64.87,1.17,1.51,1.51,1.31.68,2.88.68,4.19,0Z"/>
  <path class="cls-2" d="M458.38,120.67c.72.8,1.09,1.86,1.01,2.94v5.54h-.61v-5.51c.07-.92-.23-1.84-.83-2.54-.64-.62-1.51-.95-2.41-.89-1.03-.06-2.04.32-2.78,1.04-.7.76-1.07,1.78-1.01,2.81v5.08h-.61v-9.43h.59v2.3c.31-.73.84-1.34,1.51-1.74.73-.43,1.56-.65,2.41-.64,1.01-.04,1.99.33,2.72,1.03Z"/>
  <path class="cls-1" d="M386.83,111.8c-.03.49-.13.98-.32,1.44-9.83,23.3-23.18,38.19-46.51,45.06-7.67,21.89-17.58,33.29-29.08,33.41-9.59.15-15.83-6.05-15.83-15.51,0-10.06,7.84-17.41,27.01-20.94,3.99-.64,8.32-1.51,12.63-2.56l8.47-24.12c-9.76,12.94-21.11,21.58-34.36,21.58-15.98-.47-23.5-10.06-23.5-25.4,0-9.26,3.36-22.53,6.72-32.76-16.31-3.87-26.86-14.87-26.86-31.11.08-6.31,1.39-12.55,3.84-18.37,1.88-4.63,4.47-8.95,7.67-12.79.63-.75,1.58-1.16,2.56-1.12.81.02,1.6.3,2.24.8.74.63,1.15,1.57,1.12,2.54.05.82-.24,1.63-.8,2.24-2.78,3.2-4.99,6.85-6.54,10.8-2.14,4.89-3.28,10.16-3.36,15.49,0,14.22,9.26,22.21,22.53,25.09,11.98-34.36,29.08-57.21,47.31-57.21,13.62,0,22.53,9.08,22.53,22.85-1.12,26.86-30.05,42.36-58.49,42.36-2.35,0-4.7-.17-7.04-.47-3.68,10.7-6.7,23.65-6.7,31.64,0,12.95,6.05,18.16,16.78,18.7,11.82,0,22.21-9.08,31.15-22.21,8.64-12.32,15.83-27.81,21.74-43.32l1.59-4.31c.31-1.49,1.69-2.51,3.21-2.39,1.78-.13,3.33,1.21,3.46,3,.04.53-.05,1.06-.27,1.54l-11.83,31.47c-2.57,7.28-5.45,14.95-8.47,23.74l-6.72,19.34c18.38-6.2,29.56-20.94,37.55-39.79.53-1.21,1.7-2.02,3.03-2.07.52.02,1.03.13,1.51.32,1.2.55,1.98,1.73,2.01,3.04ZM357.58,51.28c0-9.8-6.38-16.11-15.81-16.11-15.13,0-29.58,20.61-40.59,51.61,24.6,2.97,56.41-13.01,56.41-35.56v.06ZM323.39,162.03c-14.71,2.56-20.94,6.72-21.58,14.07-.34,4.6,3.11,8.61,7.7,8.95.46.03.92.03,1.37-.01,8.62-.17,15.98-8.62,21.26-24.77-3.01.57-5.89,1.21-8.76,1.69v.06Z"/>
</svg>