<?xml version="1.0" encoding="UTF-8"?>
<svg id="Capa_1" data-name="Capa 1" xmlns="http://www.w3.org/2000/svg" viewBox="0 0 129.05 160.46">
  <defs>
    <style>
      .cls-1 {
        fill: #fff;
      }
    </style>
  </defs>
  <path class="cls-1" d="M104.26,84.62c-.02.33-.09.65-.21.95-6.5,15.4-15.32,25.24-30.74,29.78-5.07,14.47-11.62,22-19.22,22.08-6.34.1-10.46-4-10.46-10.25,0-6.65,5.18-11.51,17.85-13.84,2.64-.42,5.5-1,8.35-1.69l5.6-15.94c-6.45,8.55-13.95,14.26-22.71,14.26-10.56-.31-15.53-6.65-15.53-16.79,0-6.12,2.22-14.89,4.44-21.65-10.78-2.56-17.75-9.83-17.75-20.56.05-4.17.92-8.3,2.54-12.14,1.24-3.06,2.95-5.91,5.07-8.45.42-.5,1.04-.77,1.69-.74.54.01,1.06.2,1.48.53.49.42.76,1.04.74,1.68.03.54-.16,1.08-.53,1.48-1.84,2.11-3.3,4.53-4.32,7.14-1.41,3.23-2.17,6.71-2.22,10.24,0,9.4,6.12,14.68,14.89,16.58,7.92-22.71,19.22-37.81,31.27-37.81,9,0,14.89,6,14.89,15.1-.74,17.75-19.86,28-38.66,28-1.55,0-3.11-.11-4.65-.31-2.43,7.07-4.43,15.63-4.43,20.91,0,8.56,4,12,11.09,12.36,7.81,0,14.68-6,20.59-14.68,5.71-8.14,10.46-18.38,14.37-28.63l1.05-2.85c.21-.99,1.12-1.66,2.12-1.58,1.18-.08,2.2.8,2.29,1.98.02.35-.04.7-.18,1.02l-7.82,20.8c-1.7,4.81-3.6,9.88-5.6,15.69l-4.44,12.78c12.15-4.1,19.54-13.84,24.82-26.3.35-.8,1.13-1.33,2-1.37.34.01.68.08,1,.21.79.36,1.31,1.14,1.33,2.01ZM84.93,44.62c0-6.48-4.22-10.65-10.45-10.65-10,0-19.55,13.62-26.83,34.11,16.26,1.96,37.28-8.6,37.28-23.5v.04ZM62.33,117.82c-9.72,1.69-13.84,4.44-14.26,9.3-.23,3.04,2.05,5.69,5.09,5.92.3.02.61.02.91,0,5.7-.11,10.56-5.7,14.05-16.37-1.99.38-3.89.8-5.79,1.12v.04Z"/>
</svg>