<svg id="Capa_1" data-name="Capa 1" xmlns="http://www.w3.org/2000/svg" viewBox="0 0 255.79 155.27"><defs><style>.cls-1{fill:#27b3b3;}.cls-2{fill:#3d3d3c;}</style></defs><title>logonatalia2</title><path class="cls-1" d="M122.11,69.14v11.2h-.67l-7.64-9.73v9.73H113V69.14h.69l7.61,9.73V69.14Z"/><path class="cls-1" d="M131,72.72a3.06,3.06,0,0,1,.83,2.32v5.3H131V78.85A2.88,2.88,0,0,1,129.85,80a3.88,3.88,0,0,1-1.84.4,3.37,3.37,0,0,1-2.2-.65,2.27,2.27,0,0,1-.06-3.42,3.57,3.57,0,0,1,2.37-.65H131V75a2.33,2.33,0,0,0-.63-1.77,2.56,2.56,0,0,0-1.85-.61,4.23,4.23,0,0,0-1.59.29,3.9,3.9,0,0,0-1.29.76l-.4-.57a4.12,4.12,0,0,1,1.5-.87,5.44,5.44,0,0,1,1.84-.32A3.33,3.33,0,0,1,131,72.72Zm-1.07,6.55a3,3,0,0,0,1.1-1.39V76.31h-2.85a2.8,2.8,0,0,0-1.78.45A1.5,1.5,0,0,0,125.8,78a1.57,1.57,0,0,0,.61,1.29,2.78,2.78,0,0,0,1.71.47A3.12,3.12,0,0,0,129.89,79.27Z"/><path class="cls-1" d="M139.23,79.81a2.11,2.11,0,0,1-.76.44,3.06,3.06,0,0,1-1,.15,2.08,2.08,0,0,1-2.27-2.27V72.68h-1.53V72h1.53V70.16h.8V72h2.66v.69H136v5.37a1.76,1.76,0,0,0,.39,1.24,1.49,1.49,0,0,0,1.16.43,1.85,1.85,0,0,0,1.3-.47Z"/><path class="cls-1" d="M146.65,72.72a3,3,0,0,1,.83,2.32v5.3h-.76V78.85A2.88,2.88,0,0,1,145.55,80a3.9,3.9,0,0,1-1.84.4,3.37,3.37,0,0,1-2.2-.65A2.13,2.13,0,0,1,140.7,78a2.15,2.15,0,0,1,.74-1.69,3.6,3.6,0,0,1,2.38-.65h2.86V75a2.33,2.33,0,0,0-.63-1.77,2.55,2.55,0,0,0-1.85-.61,4.31,4.31,0,0,0-1.59.29,4,4,0,0,0-1.29.76l-.4-.57a4.25,4.25,0,0,1,1.51-.87,5.39,5.39,0,0,1,1.84-.32A3.31,3.31,0,0,1,146.65,72.72Zm-1.06,6.55a2.94,2.94,0,0,0,1.09-1.39V76.31h-2.84a2.83,2.83,0,0,0-1.79.45A1.49,1.49,0,0,0,141.5,78a1.55,1.55,0,0,0,.61,1.29,2.74,2.74,0,0,0,1.71.47A3.17,3.17,0,0,0,145.59,79.27Z"/><path class="cls-1" d="M150.78,68.47h.8V80.34h-.8Z"/><path class="cls-1" d="M154.89,69.77a.58.58,0,0,1-.19-.45.64.64,0,0,1,.19-.47.63.63,0,0,1,.47-.19.65.65,0,0,1,.46.18.62.62,0,0,1,.19.46.6.6,0,0,1-.19.46.65.65,0,0,1-.93,0ZM155,72h.8v8.35H155Z"/><path class="cls-1" d="M164.33,72.72a3,3,0,0,1,.83,2.32v5.3h-.77V78.85A2.8,2.8,0,0,1,163.23,80a3.9,3.9,0,0,1-1.84.4,3.37,3.37,0,0,1-2.2-.65,2.13,2.13,0,0,1-.81-1.73,2.15,2.15,0,0,1,.74-1.69,3.6,3.6,0,0,1,2.38-.65h2.86V75a2.33,2.33,0,0,0-.63-1.77,2.55,2.55,0,0,0-1.85-.61,4.31,4.31,0,0,0-1.59.29,3.9,3.9,0,0,0-1.29.76l-.4-.57a4.25,4.25,0,0,1,1.51-.87,5.39,5.39,0,0,1,1.84-.32A3.31,3.31,0,0,1,164.33,72.72Zm-1.06,6.55a2.94,2.94,0,0,0,1.09-1.39V76.31h-2.85a2.82,2.82,0,0,0-1.78.45,1.49,1.49,0,0,0-.55,1.23,1.55,1.55,0,0,0,.61,1.29,2.74,2.74,0,0,0,1.71.47A3.17,3.17,0,0,0,163.27,79.27Z"/><path class="cls-1" d="M180.83,74.79h.78V79a4.84,4.84,0,0,1-1.78,1.07,6.55,6.55,0,0,1-2.22.37,6,6,0,0,1-3-.74,5.39,5.39,0,0,1-2.1-2,6,6,0,0,1,0-5.82,5.39,5.39,0,0,1,2.1-2,6.17,6.17,0,0,1,3-.74,6.35,6.35,0,0,1,2.26.39,4.84,4.84,0,0,1,1.77,1.15l-.51.54a4.29,4.29,0,0,0-1.58-1,5.87,5.87,0,0,0-1.93-.31,5.38,5.38,0,0,0-2.6.64,4.67,4.67,0,0,0-1.81,1.77,5.1,5.1,0,0,0,0,5A4.79,4.79,0,0,0,175.05,79a5.21,5.21,0,0,0,2.59.65,4.89,4.89,0,0,0,3.19-1Z"/><path class="cls-1" d="M184.87,69.77a.62.62,0,0,1-.19-.45.68.68,0,0,1,.19-.47.64.64,0,0,1,.47-.19.63.63,0,0,1,.46.18.62.62,0,0,1,.19.46.6.6,0,0,1-.19.46.61.61,0,0,1-.46.2A.64.64,0,0,1,184.87,69.77Zm.07,2.22h.8v8.35h-.8Z"/><path class="cls-1" d="M202,72.84a3.56,3.56,0,0,1,.89,2.62v4.88H202V75.52a3,3,0,0,0-.69-2.14,2.48,2.48,0,0,0-1.92-.74,2.94,2.94,0,0,0-2.23.88,3.33,3.33,0,0,0-.82,2.37v4.45h-.8V75.52a3,3,0,0,0-.69-2.14,2.51,2.51,0,0,0-1.92-.74,2.93,2.93,0,0,0-2.23.88,3.34,3.34,0,0,0-.83,2.37v4.45h-.8V72h.77v1.79a3.11,3.11,0,0,1,1.24-1.37,3.85,3.85,0,0,1,2-.49,3.5,3.5,0,0,1,1.93.52,2.8,2.8,0,0,1,1.13,1.5,3.25,3.25,0,0,1,1.3-1.47,3.9,3.9,0,0,1,2.07-.55A3.23,3.23,0,0,1,202,72.84Z"/><path class="cls-1" d="M213.21,76.36H206a3.43,3.43,0,0,0,.49,1.73,3.18,3.18,0,0,0,1.26,1.18,4.07,4.07,0,0,0,3.29.12,3,3,0,0,0,1.16-.87l.47.52a3.48,3.48,0,0,1-1.37,1,4.38,4.38,0,0,1-1.78.35,4.52,4.52,0,0,1-2.23-.54,3.94,3.94,0,0,1-1.53-1.5,4.41,4.41,0,0,1-.55-2.2,4.62,4.62,0,0,1,.52-2.18,3.86,3.86,0,0,1,1.43-1.51,4,4,0,0,1,2.05-.55,3.85,3.85,0,0,1,3.47,2,4.55,4.55,0,0,1,.52,2.17ZM207.66,73a3,3,0,0,0-1.13,1.1,3.66,3.66,0,0,0-.49,1.61h6.4a3.33,3.33,0,0,0-.48-1.6,3.05,3.05,0,0,0-1.13-1.1,3.13,3.13,0,0,0-1.59-.4A3.22,3.22,0,0,0,207.66,73Z"/><path class="cls-1" d="M222.27,72.84a3.56,3.56,0,0,1,.91,2.62v4.88h-.8V75.52a3,3,0,0,0-.71-2.14,2.66,2.66,0,0,0-2-.74,3.11,3.11,0,0,0-2.32.88,3.3,3.3,0,0,0-.84,2.37v4.45h-.8V72h.76V73.8a3.18,3.18,0,0,1,1.29-1.38,4,4,0,0,1,2-.5A3.36,3.36,0,0,1,222.27,72.84Z"/><path class="cls-1" d="M233.55,76.36h-7.19a3.43,3.43,0,0,0,.5,1.73,3.22,3.22,0,0,0,1.25,1.18,4.1,4.1,0,0,0,3.3.12,3,3,0,0,0,1.16-.87L233,79a3.45,3.45,0,0,1-1.36,1,4.43,4.43,0,0,1-1.79.35,4.5,4.5,0,0,1-2.22-.54,3.94,3.94,0,0,1-1.53-1.5,4.3,4.3,0,0,1-.55-2.2A4.5,4.5,0,0,1,226.1,74a3.72,3.72,0,0,1,1.43-1.51,4.11,4.11,0,0,1,4.09,0A3.87,3.87,0,0,1,233,74a4.44,4.44,0,0,1,.52,2.17ZM228,73a3,3,0,0,0-1.12,1.1,3.53,3.53,0,0,0-.49,1.61h6.4a3.33,3.33,0,0,0-.48-1.6,3.08,3.08,0,0,0-1.14-1.1,3.12,3.12,0,0,0-1.58-.4A3.23,3.23,0,0,0,228,73Z"/><path class="cls-1" d="M241.61,79.65v.69H235V79.8l5.5-7.12h-5.42V72h6.46v.54L236,79.65Z"/><path class="cls-2" d="M114.61,84.71h3.24a4.87,4.87,0,0,1,2.32.54,4,4,0,0,1,1.57,1.49,4.25,4.25,0,0,1,.56,2.17,4.19,4.19,0,0,1-.56,2.16,3.91,3.91,0,0,1-1.57,1.5,4.87,4.87,0,0,1-2.32.54h-3.24Zm3.21,8a4.49,4.49,0,0,0,2.15-.5,3.51,3.51,0,0,0,1.42-1.36,4.15,4.15,0,0,0,0-3.95A3.58,3.58,0,0,0,120,85.57a4.49,4.49,0,0,0-2.15-.49H115v7.66Z"/><path class="cls-2" d="M129.45,90.05H124a2.85,2.85,0,0,0,.37,1.41,2.59,2.59,0,0,0,1,1,3.12,3.12,0,0,0,2.59.11,2.33,2.33,0,0,0,.89-.69l.25.26a2.85,2.85,0,0,1-1,.76,3.11,3.11,0,0,1-1.3.26,3.19,3.19,0,0,1-1.62-.4A3,3,0,0,1,124,91.62a3.26,3.26,0,0,1-.4-1.63,3.46,3.46,0,0,1,.37-1.63,2.79,2.79,0,0,1,2.55-1.53,2.82,2.82,0,0,1,1.49.4,2.85,2.85,0,0,1,1,1.1,3.39,3.39,0,0,1,.38,1.61Zm-4.18-2.53a2.43,2.43,0,0,0-.9.9,3,3,0,0,0-.37,1.3h5.08a2.86,2.86,0,0,0-.39-1.3,2.46,2.46,0,0,0-2.16-1.23A2.47,2.47,0,0,0,125.27,87.52Z"/><path class="cls-2" d="M131.48,92.92a2.8,2.8,0,0,1-1-.6l.19-.32a2.93,2.93,0,0,0,1,.57,3.65,3.65,0,0,0,1.29.23,2.58,2.58,0,0,0,1.49-.35,1.09,1.09,0,0,0,.48-1,.9.9,0,0,0-.26-.68,1.58,1.58,0,0,0-.64-.38,9.25,9.25,0,0,0-1-.24,8.85,8.85,0,0,1-1.2-.29,1.7,1.7,0,0,1-.76-.49,1.3,1.3,0,0,1-.32-.93,1.46,1.46,0,0,1,.59-1.18,2.58,2.58,0,0,1,1.69-.48,3.9,3.9,0,0,1,1.16.18,2.7,2.7,0,0,1,.93.46l-.2.31a2.74,2.74,0,0,0-.87-.44,3.57,3.57,0,0,0-1-.15,2.26,2.26,0,0,0-1.39.36,1.1,1.1,0,0,0-.47.93,1,1,0,0,0,.27.72,1.69,1.69,0,0,0,.65.39,8.93,8.93,0,0,0,1.06.25,9,9,0,0,1,1.17.29,1.84,1.84,0,0,1,.75.47,1.29,1.29,0,0,1,.3.9,1.41,1.41,0,0,1-.61,1.2,3,3,0,0,1-1.76.44A4.46,4.46,0,0,1,131.48,92.92Z"/><path class="cls-2" d="M137,85.13a.34.34,0,0,1-.12-.27.38.38,0,0,1,.12-.28.39.39,0,0,1,.28-.11.4.4,0,0,1,.27.11.37.37,0,0,1,.12.27.38.38,0,0,1-.12.28.37.37,0,0,1-.27.12A.38.38,0,0,1,137,85.13Zm.09,1.75h.39v6.23h-.39Z"/><path class="cls-2" d="M145.59,86.88v5.63a2.58,2.58,0,0,1-2.94,3,4.94,4.94,0,0,1-1.61-.26,3,3,0,0,1-1.19-.75l.23-.3a3.33,3.33,0,0,0,1.14.71,4.07,4.07,0,0,0,1.42.24,2.62,2.62,0,0,0,1.93-.62,2.59,2.59,0,0,0,.62-1.93V91.24a2.7,2.7,0,0,1-1.06,1.21,3.13,3.13,0,0,1-1.65.44,3.22,3.22,0,0,1-1.58-.39,2.92,2.92,0,0,1-1.1-1.08,3.26,3.26,0,0,1,0-3.13,2.83,2.83,0,0,1,1.1-1.07,3.22,3.22,0,0,1,1.58-.39,3,3,0,0,1,1.65.45,2.67,2.67,0,0,1,1.08,1.22V86.88Zm-1.71,5.31a2.53,2.53,0,0,0,1-1,2.83,2.83,0,0,0,0-2.76,2.44,2.44,0,0,0-1-.94,3,3,0,0,0-2.77,0,2.44,2.44,0,0,0-1,.94,2.9,2.9,0,0,0,0,2.76,2.46,2.46,0,0,0,1,1,3,3,0,0,0,2.77,0Z"/><path class="cls-2" d="M153,87.51a2.63,2.63,0,0,1,.67,1.94v3.66h-.4V89.47a2.33,2.33,0,0,0-.55-1.68,2.09,2.09,0,0,0-1.59-.59,2.45,2.45,0,0,0-1.84.69,2.54,2.54,0,0,0-.67,1.86v3.36h-.4V86.88h.39V88.4a2.45,2.45,0,0,1,1-1.15,3,3,0,0,1,1.59-.42A2.48,2.48,0,0,1,153,87.51Z"/><path class="cls-1" d="M105.71,81.65a3,3,0,0,1-.21.95C99,98,90.18,107.84,74.76,112.38c-5.07,14.47-11.62,22-19.22,22.08-6.34.1-10.46-4-10.46-10.25,0-6.65,5.18-11.51,17.85-13.84,2.64-.42,5.5-1,8.35-1.69l5.6-15.94C70.43,101.29,62.93,107,54.17,107c-10.56-.31-15.53-6.65-15.53-16.79,0-6.12,2.22-14.89,4.44-21.65C32.3,66,25.33,58.73,25.33,48a32.32,32.32,0,0,1,2.54-12.14,31.8,31.8,0,0,1,5.07-8.45,2.09,2.09,0,0,1,1.69-.74,2.52,2.52,0,0,1,1.48.53,2.11,2.11,0,0,1,.74,1.68,2,2,0,0,1-.53,1.48A24.45,24.45,0,0,0,32,37.5a26.53,26.53,0,0,0-2.22,10.24c0,9.4,6.12,14.68,14.89,16.58,7.92-22.71,19.22-37.81,31.27-37.81,9,0,14.89,6,14.89,15.1-.74,17.75-19.86,28-38.66,28a37.13,37.13,0,0,1-4.65-.31c-2.43,7.07-4.43,15.63-4.43,20.91,0,8.56,4,12,11.09,12.36,7.81,0,14.68-6,20.59-14.68,5.71-8.14,10.46-18.38,14.37-28.63l1.05-2.85a2,2,0,0,1,2.12-1.58,2.14,2.14,0,0,1,2.11,3l-7.82,20.8C84.9,83.44,83,88.51,81,94.32L76.56,107.1C88.71,103,96.1,93.26,101.38,80.8a2.28,2.28,0,0,1,2-1.37,3,3,0,0,1,1,.21A2.28,2.28,0,0,1,105.71,81.65Zm-19.33-40C86.38,35.17,82.16,31,75.93,31c-10,0-19.55,13.62-26.83,34.11C65.36,67.07,86.38,56.51,86.38,41.61Zm-22.6,73.2c-9.72,1.69-13.84,4.44-14.26,9.3a5.52,5.52,0,0,0,6,5.91c5.7-.11,10.56-5.7,14.05-16.37C67.58,114.07,65.68,114.49,63.78,114.81Z"/></svg>