<?xml version="1.0" encoding="UTF-8"?>
<svg id="Capa_1" data-name="Capa 1" xmlns="http://www.w3.org/2000/svg" viewBox="0 0 384 269">
  <defs>
    <style>
      .cls-1 {
        fill: #fff;
      }
    </style>
  </defs>
  <path class="cls-1" d="M130.96,34.38h203.97v18.51c-3.19,5.05-6.13,10.19-14.28,10.18l-186.56-.11c-7.68,0-12.75-6.84-13.26-13.22-.58-7.21,3.93-12.31,10.13-15.36Z"/>
  <g>
    <path class="cls-1" d="M334.93,129.81v8.68c-3.18,5.06-6.2,10.17-14.29,10.17l-257.28-.02c-6.62,0-11.4-4.47-13.28-10.13-.26-.79-.62-1.14-1.01-1.4v-5.21c2.8-6.14,4.75-10.73,13.53-11.91h259.55c8.16,1.09,9.19,5.15,12.78,9.83Z"/>
    <path class="cls-1" d="M334.93,215.48v19.14h-145.16c-.46-.86-1.53-.91-2.64-1.32-6.87-2.53-10.42-9.56-8.94-16.66,1.3-6.23,7.01-11.21,14.14-11.2l44.82.03,85.1.2c6.74.02,10.02,5.96,12.67,9.8Z"/>
  </g>
</svg>