<?xml version="1.0" encoding="UTF-8"?>
<svg id="Capa_1" data-name="Capa 1" xmlns="http://www.w3.org/2000/svg" viewBox="0 0 62.64 56.84">
  <defs>
    <style>
      .cls-1 {
        fill: #1f56bb;
      }
    </style>
  </defs>
  <g id="nDIeLi.tif">
    <g>
      <path class="cls-1" d="M30.69,44.42h-.02l-.05-.12s.08.02.1.03c.02.02,0,.07-.03.09Z"/>
      <path class="cls-1" d="M20.89,43.48c.02.1-.17.26-.27.23-.08-.02-.1-.07-.12-.16-.01-.06-.07-.12-.05-.2.09.02.19.01.26-.05.02,0,.04.01.05,0,.01,0,.02-.06.01-.09.03-.03.13.06.09.11-.06.08-.17.12-.17.25.07-.04.11-.07.2-.09Z"/>
      <path class="cls-1" d="M19.67,39.31l-.23-.51-.1-.32c-.02-.07,0-.13.05-.2.07.17.14.36.15.57l.21.24c-.07.06-.05.12-.07.23Z"/>
      <path class="cls-1" d="M16.97,31.41c-.15-.25-.12-.52-.24-.82-.03-.08-.03-.18-.08-.26-.01-.02.04-.07.06-.07-.05-.05-.08-.04-.12-.06v-.3c.07.04.05.1.05.15.09.08.13.19.06.27.05.02.09.04.1.07-.04.07,0,.15,0,.22l.16.8Z"/>
      <path class="cls-1" d="M16.19,27.54c.08.26-.03.37-.06.57l-.05-.44s-.01-.07,0-.11c.01-.04.09-.05.1-.02Z"/>
      <path class="cls-1" d="M20,42.59s-.09.07-.17.09c-.04-.07-.1-.12-.18-.17.05-.05.09-.01.13-.02.07-.07.18-.12.27-.05-.1.03-.2.05-.22.14.07.02.12-.06.16-.04.02,0,.01.04.01.05Z"/>
      <path class="cls-1" d="M46.89,39.15s-.01-.19.02-.22c.1-.02.17.05.15.13-.01.07-.09.17-.17.09Z"/>
      <path class="cls-1" d="M19.02,36.64s-.17-.13-.16-.19c0-.04.02-.13.1-.09.07.03.08.17.06.28Z"/>
      <path class="cls-1" d="M28.78,17.43c-.07-.08-.05-.13-.05-.22l.14-.03s.06.12.03.15c-.04.03-.1.04-.12.1Z"/>
      <path class="cls-1" d="M21.72,44.23c-.07.08-.12.01-.18,0-.05-.01-.09,0-.13-.03-.02-.02-.04-.06-.04-.1.13,0,.23.05.34.13Z"/>
      <path class="cls-1" d="M19.98,40.1c0-.1-.02-.17-.1-.2v-.13c.14.07.17.21.1.32Z"/>
      <path class="cls-1" d="M20.28,42.53s-.05.11-.1.12c-.03.01-.1-.07-.09-.1.03-.06.11-.07.19-.03Z"/>
      <path class="cls-1" d="M19.9,39.52s.03.15,0,.2c-.09-.05-.13-.14-.13-.22l.07.07s.05-.04.06-.05Z"/>
      <path class="cls-1" d="M27.06,43.74l-.14-.09s-.05-.05-.04-.11c.08,0,.17.05.18.2Z"/>
      <path class="cls-1" d="M13.96,37.41c-.06.03-.17-.04-.14-.1.03-.05.08-.02.1,0,.04.02.06.08.03.1Z"/>
      <path class="cls-1" d="M17.5,33.19c-.09,0-.11-.15-.06-.21.04.07.05.14.06.21Z"/>
      <path class="cls-1" d="M26.61,43.41l-.23-.08c.08-.05.18-.02.23.08Z"/>
      <path class="cls-1" d="M17.91,34.37c-.05-.04-.07-.13-.01-.21.04.07.04.12.01.21Z"/>
      <polygon class="cls-1" points="16.53 29.54 16.59 29.57 16.55 29.68 16.48 29.65 16.53 29.54"/>
      <path class="cls-1" d="M18.97,37.54s-.07-.08-.07-.14c.07,0,.1.1.07.14Z"/>
      <polygon class="cls-1" points="18.05 34.57 18.11 34.68 18.06 34.71 18 34.6 18.05 34.57"/>
      <path class="cls-1" d="M17.06,31.6s-.02.06-.02.08c0,.02-.04.03-.05,0,0-.02.02-.05.03-.08-.02-.08.08-.05.05,0Z"/>
      <path class="cls-1" d="M19.27,37.6c-.07,0-.09-.05-.08-.11.03.02.07.03.08.11Z"/>
      <path class="cls-1" d="M22.99,43.97s.06-.07.11-.11c0,.05-.02.11-.11.11Z"/>
      <path class="cls-1" d="M18.46,34.98c0,.07-.07.07-.07,0,0-.04.06-.04.07,0Z"/>
      <path class="cls-1" d="M23.12,23.8s0-.15.03-.19l.09-.23v.32c-.02.05-.08.14-.12.1Z"/>
      <path class="cls-1" d="M23.27,23.04c-.05-.18-.03-.2-.02-.26,0-.02.06-.03.07,0,.02.1-.02.18-.05.26Z"/>
      <polygon class="cls-1" points="30.27 31.78 30.3 31.82 30.16 31.93 30.13 31.89 30.27 31.78"/>
      <g>
        <path class="cls-1" d="M21.32,43.29c-.09.16-.19.19-.32.26-.05.02-.08-.07-.07-.11.02-.05.06-.06.12-.08l.26-.07Z"/>
        <path class="cls-1" d="M35.16,17.24s-.05.23-.15.23c-.02-.18.12-.29.15-.23Z"/>
        <polygon class="cls-1" points="18.62 20.13 18.68 20.17 18.61 20.31 18.54 20.28 18.62 20.13"/>
        <path class="cls-1" d="M25.54,37.39c.02.07-.07.07-.11.06s-.08-.03-.07-.11c.04,0,.16,0,.18.05Z"/>
        <g>
          <path class="cls-1" d="M39.13,12.42c.05.06.05.13.07.21l.06.34c.02.11.17.15.24.21.09.09.19.11.31.13.05,0,.09.06.16.03.08-.04.17.02.19.1.02.05.09.04.11.06l.29.27c.08.07.18.11.21.23.14.09.25.2.3.37.13.04.17.16.13.29.11.1.19.22.15.39.11.12.13.27.11.41-.11.1,0,.28-.02.48-.05.1-.05.17-.04.28,0,.1-.06.27-.11.37l-.14.23-.2.38c-.09.17-.15.3-.2.48l-.18.65c-.04.13-.1.24-.15.37l-.35.93-.23.53-.13.32-.28.66-.29.63-.39.89-.53,1.17-.53,1.14-.48,1.09c.2.15.34.32.48.51l.43.56.29.52c.08.14.18.24.26.37l.26.42c.15.24.32.45.48.68l.3.42.25.31.31.38c.13.15.25.29.39.42l.18.16.47.39.43.38c.06.06.17.06.19.17.02.08.09.14.14.19l.16.17.34.35.18.16s.07.14.16.14l.18-.42c.03-.07.06-.18.11-.24.08-.08.1-.16.14-.26l.26-.61c.16-.37.24-.31.11-.69-.03-.07-.08-.11-.07-.21.02-.17-.07-.37-.04-.42.03-.05.13.03.14.03.04-.02.03-.13,0-.15-.02-.01-.07,0-.1.02-.03-.04-.03-.12.02-.17.03-.03.06-.08.13-.07-.04-.09-.01-.13.02-.2.08-.16.1-.38.25-.49.09-.07.21-.11.15-.28.09-.07.14-.16.21-.25.04-.04.14-.02.19-.05.08-.05.06-.16,0-.23-.05-.06-.12-.07-.24-.02l.06-.25c.02-.07.15-.16.23-.14.12.03.19.14.23.25.04-.01.05-.05.07-.07h.38c-.03-.08-.05-.13-.03-.19.01-.04.07-.04.09-.03.03,0,.05.04.07.07.04.06.33.05.35-.14l.27-.06c.11-.02.17-.2.23-.28l.44-.03s.08,0,.1.02c.02.02,0,.09-.02.11.08.04.13-.03.18-.03.28.01.5.13.65.35.03-.01.05-.04.04-.05,0-.01-.03-.04-.04-.05-.02-.03.02-.05.03-.04.14.21.73.11.58.44.15.02.18.1.23.2.04.08.1.15.05.25.03.05.14.09.15.16,0,.15.07.26.11.4v.04c-.08,0-.05.13-.2.2-.03.01-.05,0-.04-.03,0-.01,0-.02.03-.04l.03-.02s.04-.04.04-.06-.03-.03-.05-.01c-.11.11-.11.24-.27.28.08.05.06.11.08.18l.04.13-.08.11c0,.08.13.15.22.12.03.17-.29.19-.29.3v.56c-.04.08-.06.16.01.24-.07.17,0,.35-.02.52l-.03.25c-.01.1-.03.13-.03.23,0,.17-.1.35-.02.54.06.13.19.26.21.41.02.13.03.22.1.33.03.06.04.21.04.28l-.05.47-.16.73-.07.28c-.05.19-.22.37-.37.49-.08.06-.18.11-.18.23,0,.05.1.09.13.11l.06.27c.08.34-.11.45-.05.57s.07.27-.03.39c-.15.17-.24.37-.31.59.04.18.04.36-.01.53,0,.03-.02.05-.05.05h-.06s0-.2-.03-.35l-.29.63c-.07.16-.16.33-.33.38-.1.03-.21.12-.19.18,0,.02.04.05.06.02l.04-.05s.04.02.04.04l.08.2-.07.12s-.03.04-.05.04c-.02,0-.03-.03-.03-.05,0-.02,0-.03.04-.06.04-.04-.06-.12-.12-.1-.12.03-.25-.14-.23.02l.03.28s-.07.01-.08,0l-.03-.06s-.09-.09-.11-.06v.4s-.13-.05-.14,0c0,.05,0,.12-.04.13-.08.03-.16-.1-.27-.08-.05,0-.19.14-.2.07,0-.02,0-.07-.02-.1-.22,0-.29.19-.41.16-.05-.01.04-.2-.07-.26-.02.01-.03.07-.06.07-.08,0-.17-.08-.16-.09l.06-.09c-.31-.04-.49-.36-.71-.3-.1.03-.17.03-.23-.04-.01-.01-.05-.03-.05-.05,0-.02.07-.05.08-.08,0,0-.08-.04-.11-.13-.21-.07-.36-.23-.47-.41-.09-.16-.25-.25-.39-.36l-.55-.47-.33-.34-.56-.48-.24-.21c-.09-.08-.2-.13-.23-.24-.12.04-.22-.23-.41-.34-.36-.22-.63-.15-.41-.32-.05-.04-.1-.07-.18-.08.02.05,0,.08-.02.09-.11.02-.18-.06-.26-.1l-.66-.31-.33-.17-.2-.11-.04-.03s0-.02,0-.02c.09,0,.19.08.31.06-.08-.12-.22-.11-.33-.18-.07-.04-.14-.17-.23-.12-.02,0-.03.07-.05.07-.02,0-.05-.03-.06-.04l-.31-.17c0-.1.11.07.2,0l-.48-.26-.21-.25s-.08.07-.11.14l.13.07c-.18.11-.24-.14-.29-.41,0-.03.04-.05.08-.07l-.21-.06s.02.07.02.08c0,.01-.04.02-.06,0l-.24-.15s-.04.08,0,.11c.07.06.14.02.15.07.03.12-.24-.11-.25-.12l-.17-.08c.02-.13-.13-.17-.08-.2.01,0,.06.01.07.02.03-.03.06-.13.02-.16-.04-.04-.1-.02-.15-.02-.15-.19-.26-.05-.32-.09-.04-.02-.03-.07-.05-.11-.02-.04-.11-.04-.14-.08-.01-.11,0-.22-.07-.31-.03-.04-.11-.03-.13,0-.01.02.02.06.01.1-.06-.05-.06-.13-.09-.21.02-.04.05-.06.02-.1-.03-.04-.06-.09-.11-.06.02.04-.02.06-.02.05l-.16-.1s-.07,0-.07.05c-.03.03-.05,0-.03-.03.02-.05-.02-.08-.04-.08-.01,0-.03.03-.05.05l-.26.52-.07.26c0-.07-.08-.07-.07,0l-.15.45c-.03.1-.07.25-.15.34-.11.13-.22.25-.23.44-.12.08-.18.21-.21.34-.08.1-.09.22-.14.34l-.12.37s-.08.02-.1.02l-.22.48-.12.24c-.09.19-.16.36-.24.55l-.13.34-.2.38-.69.78-.13.14-.48.47-.26.24-.34.33c-.06.06-.08.07-.17.11l-.29.28-.23.14c-.16.09-.33.17-.51.19l-.25.03c-.22-.01-.4,0-.59.11l-.29.08c-.31.13-.6.3-.85.51l-.18.21s-.03.07-.05.08c-.02,0-.08.02-.12,0,.03-.05.02-.1,0-.12-.04-.03-.09-.01-.12,0-.03.02,0,.09,0,.12-.04.1-.19.18-.31.11-.04.1-.14.12-.18.17-.08.09-.15.1-.24.16-.16.09-.3.17-.49.11-.09-.03-.15.01-.21.08-.04.04-.15-.03-.19-.08-.14.12-.19.19-.13.37.1.07.26.1.3.22l.04.12s-.02.03-.03.03c-.05.01,0-.05-.03-.07-.02-.01-.05,0-.08.01-.06.01-.13-.07-.23,0,.11.1.24.15.37.22.02.01.04.07.02.07l-.08.02s-.01-.07-.02-.09c-.05-.02-.13.02-.15.1l.45.22.2.12c.08.05.21.03.22.16-.12-.08-.25-.08-.36-.13l-.22-.12c-.12-.06-.24-.19-.39-.16-.07.12-.16-.02-.28.07-.18-.08-.15.13-.45.28-.12.06-.24.22-.39.22h-.3c-.09,0-.14-.15-.19-.19-.15.18-.39-.02-.41.27-.03,0-.09-.05-.13-.02-.03.02-.05.06-.06.11-.02-.04-.06-.07-.08-.06l-.06.03s-.09.01-.11.03c-.1.09.02.2-.13.33-.04.03-.03.11-.03.17-.12.06-.3.09-.42.02,0-.05.01-.14-.06-.14-.11,0-.29.16-.32.11l-.06-.09c-.08-.03-.14.03-.21.08-.03-.08-.08-.13-.15-.14.02-.09.12-.07.16-.1.06-.06-.04-.1-.09-.1-.03,0-.06.02-.11.06-.03-.02-.02-.06,0-.07.02,0,.05-.01.07-.03.04-.03,0-.06-.03-.08-.02-.01-.08-.01-.1.01-.01.02-.02.07-.03.11-.12,0-.25,0-.37.05v-.18c.08-.02.19.02.26-.04l.22-.2s.1-.04.11-.09c0-.05-.02-.09-.07-.11-.08-.04-.17.08-.22.05-.02-.01.02-.17-.07-.21-.11-.05-.18.13-.31.1-.05-.09-.1-.1-.2-.13-.03-.01-.07-.1-.15-.07,0,.04.02.09.02.14h-.37s-.06,0-.07-.03c0-.01-.01-.03.01-.05l.18-.09s.04.05.06.05c.02,0,.06-.03.06-.05,0-.06-.08-.1-.07-.11.01,0,.07-.03.06-.05-.01-.03-.09-.03-.08-.09,0-.03,0-.07.04-.1.06-.06.03-.15-.04-.2,0-.09.06-.16.02-.28-.03.03-.06.07-.11.07,0-.16.24-.03.27-.23.04-.01.06.04.07.06.01.04-.05.06-.07.09,0,.06.16.07.16,0v-.18c.04-.1.09-.25.03-.35-.04,0-.11.02-.13-.02-.02-.04-.02-.08,0-.12.02-.07-.07-.12-.08-.16-.03-.12-.08-.19-.14-.29l-.1-.2c-.14-.26-.29-.44-.18-.43.02.07.07.13.16.13.04.06.07.09.1.18.04-.03.03-.11.02-.16,0-.03-.06-.05-.1-.06-.03-.12.06-.24.06-.34l-.17-.35-.09-.22-.17-.36c-.08-.17-.15-.32-.33-.41.02-.08-.03-.16-.03-.24v-.19c0-.12-.07-.17-.18-.17-.02,0-.03-.07-.02-.08,0-.01.04-.02.07-.03l-.04-.12c-.07-.12-.08-.26-.12-.38-.04-.11-.09-.19-.03-.32.06.02.09.06.13.15.06-.09,0-.19-.04-.28l-.14-.34c-.09-.22-.11-.38-.15-.47l-.14-.28c-.04-.07-.04-.13-.06-.2-.03-.1-.17-.13-.27-.12-.01-.03.02-.08.04-.1.03-.02.08.01.1,0,.07-.12-.12-.14-.09-.35l-.1-.08s.02-.08,0-.12c-.02-.05-.09-.1-.09-.15,0-.13-.08-.32-.1-.33h-.11c.05-.11-.04-.17-.06-.23-.03-.12,0-.25-.07-.36-.01-.02-.06-.03-.05-.05s.02-.06,0-.08c-.04-.04-.1-.05-.17-.07,0-.19-.16-.28-.18-.54,0-.08.03-.14-.06-.2-.05-.04-.04-.12,0-.18.03-.04-.06-.14-.09-.12-.06.04.02.1.03.14-.15-.09-.19-.27-.27-.43.07,0,.14,0,.18-.06,0-.03-.04-.09-.05-.1s-.06.04-.08.06c-.06-.02-.06-.11-.06-.2l.1.08c0-.16-.12-.22-.15-.33l-.11-.47c-.08-.18-.11-.34-.14-.53-.05-.32-.21-.74-.19-.82.02-.08.06-.14.03-.24-.01-.05.03-.17,0-.21-.06-.1-.06-.17-.08-.27-.01-.08-.06-.14-.06-.26-.1.1-.07.2-.09.34-.1-.12-.04-.25-.03-.37.02-.19-.1-.45-.04-.72.1.16.06.32.1.47-.03.03-.04.05-.04.06,0,.02.04.07.05.06.05-.06.06-.11.08-.18-.1-.1-.09-.38-.09-.61l-.08.11c-.08-.21-.04-.42-.05-.63,0-.08-.02-.1.03-.18.06-.11-.02-.27-.02-.38v-.49c.01-.09.04-.12.05-.19l.04-.54c0-.1,0-.18.09-.24l.02.29s.07-.08.08-.13v-.57s.04-.19.04-.19l-.03-.03s-.04.05-.1.07c-.02-.16-.05-.32.01-.48.06.04.12.1.12.15l-.02.24.03.04.09-.48c0-.15-.03-.32,0-.46.07-.29.16-.38.1-.8-.03-.22.1-.53.08-.84,0-.08,0-.17-.1-.2-.03.1-.07.17-.07.26,0,.03.08.04.1.05.01.08.02.17,0,.24-.15-.07-.1.12-.12.49,0,.04.01.11-.05.1-.02-.02-.03-.07-.06-.07-.02,0-.07-.02-.1,0,.06.26-.07.6-.08.91,0,.21-.05.37-.09.57l-.09.44s.07.12-.03.19c-.02.01-.03.24.05.36.05.07.02.18.04.27-.06.01-.1-.04-.19.02.09.06.12.1.13.17.01.08-.05.1-.08.16s-.08.16-.08.22v.32c-.02.08-.03.14-.11.19-.02.03-.01.12-.08.15-.03-.1,0-.21,0-.32l-.03-.73c0-.08.05-.17.04-.23,0-.08-.04-.13,0-.23v-.29s-.05-.03-.06-.05c-.01-.05,0-.08.03-.11.01.05.05.06.07.05.02-.02.04-.04.02-.07l-.05-.09c.09-.09.06-.19.07-.3.02-.2.11-.4.03-.58l-.08.53c-.02.1,0,.21-.04.29,0,0-.02,0-.03,0l.02-.39c0-.08.02-.15.03-.24l.09-.61c.02-.1.01-.19.09-.28,0-.03-.02-.09-.02-.12.07-.07.02-.17.03-.24.02-.16.08-.3.04-.46.04-.02.06,0,.06.01,0,0,0,.04,0,.06-.02.06.08.06.05,0,.01-.04.03-.1.01-.13-.01-.02-.04-.03-.1-.05.13-.06.02-.19.05-.24.06-.13.07-.29.09-.43.05-.36.14-.69.14-1.05,0-.16.04-.3.13-.42.01-.02.02-.07.03-.08.01-.01.05,0,.07,0,.06-.07.01-.16.03-.23.03-.14.06-.25.06-.39,0-.13.12-.22.08-.38.15.12.02.4.03.52.02.24.05.46-.01.74.1-.05.1-.12.19-.15.02-.05.01-.09.07-.15.12.16.03.29-.03.5.05.22.04.41,0,.64.13-.18.07-.42.16-.62.04-.09.17-.14.15-.31-.02-.11.02-.27.07-.38l.17-.45c.01-.11,0-.23.1-.31.1.31.04.58-.04.86.05.12.16.27.08.43.1,0,.11-.02.18-.04-.05-.1.03-.2.04-.29s.03-.13.05-.21c.02-.06.02-.31.09-.3.1.02.04.35-.05.58l-.05.28s-.07.06-.05.11c.01.03.06.08.08.04l.13-.2c-.12-.04-.05-.21.04-.37.06-.01.12-.03.19-.07-.1.25-.09.68.08.76,0-.13.06-.25.08-.35-.06-.14-.07-.29-.02-.44.13-.4.04-.72.16-.68.04.01.05.05.1.11.07-.1.08-.27.03-.4,0-.03-.08.02-.07.05l.02.11s-.08-.03-.13-.07c.01-.13.04-.28-.02-.41-.04-.09-.16-.18-.16-.3,0-.1.09-.23.06-.34-.07-.22.13-.34.16-.66.16.02.24-.09.29-.22.04-.09.1-.16.09-.27.07.02.1.03.14.02.03,0,.06-.06.06-.09.01-.11.08-.14.14-.18.16-.11.23.04.53-.05.04-.04.02-.14.02-.18.06-.05.17.02.23.04.06-.02.06-.12.04-.17l.17-.04s.07-.05.11-.05c.03,0,.06.03.1.05.09-.07.24-.11.31.02l.19-.09c.17-.01.27-.18.35-.28.15-.15.55-.41.66-.43.12-.03.2-.09.29-.13.08,0,.22.03.31,0,.04-.01.12.06.15.03s.06-.07.08-.11c.11-.02.3-.03.4.04.14.11.26.21.42.28.07.03.13.12.23.12-.04.06-.06.08-.05.1,0,.02.18.19.28.18-.03-.07-.05-.12-.05-.16.07-.03.13.03.18.04.23.05.41.18.62.27.14.06.24.14.37.21l.53.27.51.27c.05.03.07.12.16.13.23.03.42.19.53.41.1-.02.26,0,.32.07.01.02,0,.09.03.09.02,0,.04-.04.06-.05.09.01.17.11.18.21l.14.07s.09.11.15.12c.1,0,.2.01.29.08l.44.31c.16.11.29.22.46.31.16.08.37.33.65.51.06.04.17.13.22.19.12.14.26.17.39.29l.68.61c.11.1.17.23.32.3l.14.14c.21.13.32.36.5.52l.15.13c.13.17.25.32.36.51.06.1.17.17.26.23.13.09.16.2.24.32l.24.32c.08.11.2.2.16.36l.16.11c.04-.11-.01-.2.02-.29l.05-.14c-.02-.15-.04-.27,0-.42.04-.02.13-.02.15-.06.18-.44-.25-.81.09-.85-.06-.07-.08-.11-.04-.18-.07-.08-.1-.19-.07-.29-.05-.16.04-.31.16-.43-.13-.17.04-.47.12-.73l-.03-.37c.1-.17.2-.33.26-.51l-.03-.26c-.01-.12.01-.15.02-.23.03-.21.08-.36.18-.55.06-.11.1-.29.17-.38v-.08s.02-.01.03,0c0,0,.01.03.04.04.13-.24.2-.49.31-.74.01-.12.05-.22.1-.34.01-.04,0-.11.04-.14.16-.1.06-.25.08-.37s.12-.23.1-.38c-.02-.17.1-.38.14-.61l.03-.18c.08-.19.18-.37.2-.58s.04-.43.18-.59c.06-.07.18-.12.13-.23-.05.07-.09.13-.17.11.02-.17.15-.26.24-.37.1-.12.2-.26.38-.16,0,.06-.03.11,0,.19.08-.11.16-.14.25-.2.21-.15.49-.35.6-.16h.15c.21-.08.39-.21.55-.36.07.02.12.08.18.08l.14-.1s.09-.04.08-.09h.38ZM24.72,16.3c-.06-.03-.1.05-.03.06.11.05.21.11.33.12l-.3-.18ZM25.08,16.51l-.02.04.12.06.02-.04-.12-.06ZM25.59,16.68c-.1.09-.14-.02-.24.01.26.16.63.31.53.17-.03-.05-.17-.04-.29-.18ZM26.56,17.32c0-.07,0-.12,0-.15-.07.03-.1.08-.11.11.03.06.11.06.11.04ZM29.23,34.04c.16-.29.28-.58.36-.9l.21-.37.2-.47s0-.07.03-.09c.01,0,.03-.01.06,0-.02.16-.09.3-.15.46-.02.07-.03.1-.09.15-.09.07-.08.23-.13.33l-.12.24v.29s-.12.23-.12.23c-.03.16-.11.26-.2.39l-.25.39c-.04.06-.1.13-.05.2l.32-.46c.22-.26.34-.58.41-.91.01-.07.1-.11.15-.15.1-.08.06-.22.11-.32l.18-.32s.08-.03.09-.08c-.02-.03-.06-.11-.04-.15.1-.09.15-.19.2-.3l.14-.28.16-.32c.06-.13.1-.25.13-.4l.15-.25c.02-.1.04-.19.15-.21,0,.04-.03.07-.02.12.05-.05.08-.11.12-.18-.02-.02-.06-.04-.08-.05-.04-.12.03-.22.08-.32.07-.14.12-.28.21-.4.06-.08.07-.16.1-.24.11-.25.24-.48.32-.73.01-.04.07-.07.06-.11,0-.02-.17-.3-.32-.36.01-.04.03-.08.02-.12-.02-.08-.13-.11-.18-.16-.06-.16-.15-.26-.24-.4l-.19-.28-.14-.16c-.05-.05-.06-.11-.05-.17l-.27-.34c-.08-.1-.2-.18-.25-.29-.07-.14-.16-.19-.24-.32.02-.12.01-.23-.05-.32-.04.07-.02.12-.02.18-.06-.03-.07-.08-.07-.14,0-.07-.06-.11-.1-.15-.05-.05.04-.11.05-.14-.02-.06-.07-.02-.08,0-.01.03-.03.06-.03.09-.11-.04-.11-.14-.16-.22l-.36-.52s-.05-.1-.15-.07l-.18-.48c-.1-.05-.14-.13-.19-.23l-.24-.22c-.06-.14-.23-.37-.33-.46-.03-.02-.02-.12-.06-.15-.02-.02-.06-.01-.11-.02-.14-.25-.41-.31-.49-.43-.08-.12-.16-.14-.27-.22-.12-.09-.23-.23-.35-.33-.07-.06-.13-.07-.2-.12-.09-.06-.19-.17-.29-.2-.02,0-.05-.08-.06-.07l-.07.05c-.08-.09-.17-.21-.29-.26-.23-.1-.47-.22-.33-.28.04.03.07.12.16.13.02-.08-.05-.12-.08-.15-.05-.04-.13,0-.18,0-.06,0-.12-.06-.17-.08-.06-.02-.07-.1-.1-.15-.03.04-.04.07-.06.08-.01,0-.03-.03-.05-.03l-.28-.13c-.09-.09-.3-.21-.45-.29l-.39-.2c.03-.07.02-.13-.02-.15-.06-.04-.12-.04-.14,0,.18.1.05.14-.24,0-.08.07-.03.16-.05.22-.06.15-.11.29-.14.46l-.11.56c-.02.11-.06.21.02.33,0,.05-.04.05-.04-.01-.07.04-.03.15-.04.2-.13.08-.14.25-.27.36l.11.06c-.08.17-.04.33-.07.5l-.07.52c-.02.17-.01.3-.06.46v.32c0,.14.02.27-.04.4-.04.08-.05.17-.03.26.05.18.03.35.02.54,0,.07.04.11,0,.18-.04.06.07.2.05.26-.04.08-.06.15-.05.25.02.24.01.48,0,.73,0,.08.06.19.02.26-.04.09,0,.15,0,.22-.02.2,0,.38.02.58,0,.07,0,.16,0,.23l.02.23-.04.77c-.01.26.02.48.08.73v.25s.07.51.07.51c.03.26.04.49.09.75l.04.26.1.62.16.5.12.36c.04.12.06.24.12.36-.03.1,0,.18.09.21.02.2.09.36.15.54l.1.29.19.56.11.28c.03.07.05.13.07.21l.14.55c.1.26.19.51.27.78.07.23.18.53.35.64l.18.12.29.22c.07.05.12.14.23.07.09-.05.21-.09.27-.18h-.15s-.04-.1,0-.11c.04,0,.13.06.15-.03,0-.04-.04-.13-.08-.18-.08.07-.15.07-.26.06s-.18-.17-.13-.23c.1-.05.23-.04.34-.02.04-.01.04-.11.01-.15-.02-.03-.14-.12-.17-.12-.05.01-.12.09-.17.05-.01-.01-.03-.05-.03-.06.08-.04.14-.02.21-.03.05,0,.04-.11,0-.14-.03-.02-.06-.06-.06-.09.06.03.17.04.2,0,.01-.03-.03-.12.03-.15.05.05.11.06.17.04.04-.02.05-.09.09-.13.08-.07.2-.11.21-.24.07-.01.08.06.12.1.06.05.08-.06.1-.09.04-.07.16,0,.21,0,.09-.04.23-.09.3-.16l.21-.21c.05-.05.1-.06.14-.09l.31-.24.15-.12.37-.33c.07-.07.16-.12.23-.2.02-.02.17-.37.31-.63l.27-.51ZM18.59,20.81l-.06.06.05.06.06-.06-.05-.06ZM34.28,21.14s-.05-.06-.07-.04c-.01,0-.03.03-.02.05l.03.05s.02.08.04.03c.02-.04.03-.06.02-.1ZM25.13,21.18c-.05-.02-.06-.04-.07-.04,0,0-.05,0-.04.04.01.03.09.03.11,0ZM32.38,21.7c0-.08-.05-.14-.14-.14.04.06.08.1.14.14ZM26.4,21.95s-.09-.04-.14-.08c-.03.05,0,.09.04.13.02.02.09,0,.1-.05ZM16.81,22.36c.03-.06.04-.08.03-.13-.03.01-.05.04-.05.07,0,.02-.01.06.02.06ZM16.64,23.42c.07-.09.05-.15.05-.25,0-.13.07-.24.05-.39l.05-.25c-.1.02-.09.1-.1.17l-.17.95c.12-.02.07-.18.11-.23ZM34.1,22.78s.02-.07,0-.11c-.02,0-.04.03-.05.04-.01.02-.01.08.04.06ZM17.27,23.91c.03-.1.07-.15.04-.25,0-.03.07-.1,0-.15-.09.18-.09.37-.07.57.1-.04.02-.13.03-.17ZM16.5,24.26l.06-.31c.02-.08,0-.14.03-.23-.1.06-.08.15-.09.26,0,.09-.06.18-.01.28ZM16.46,24.46c.04-.05.07-.12.04-.17-.03.06-.05.1-.04.17ZM22.79,24.31c-.04-.07-.1-.02-.09.02,0,.02,0,.05.03.09-.04.05.05.08.05.03-.01-.05.03-.1.01-.13ZM16.39,25.08c.09-.08.06-.16.09-.24l-.04-.33c-.03.19-.1.36-.05.57ZM29.21,24.83c0-.05-.06-.13-.05-.18.05-.04-.01-.06-.04-.04-.03.02-.05.04-.04.06l.04.06s0,.07,0,.09c0,.01.03.03.08,0ZM16.4,25.64c-.09-.25.07-.4,0-.54-.09.1-.09.37-.04.52-.06.05.02.09.04.02ZM29.84,25.6s.03-.11-.02-.12c-.03,0-.04.09.02.12ZM16.7,27.42c0-.09,0-.14.08-.2-.1-.12-.05-.25-.04-.38.03-.27,0-.53-.02-.78-.02.14-.02.25-.06.38-.05.15.04.36,0,.64-.02.13-.03.23.05.34ZM17.07,29.34s.03.06.04.09l.04-.03s-.05-.08-.06-.13l-.05-.88-.02-.51c0-.07-.08-.13-.02-.21.05-.07,0-.19.01-.26.01-.1,0-.17-.02-.28l-.04-.39h-.04c-.12.31.04.38,0,.46-.02.04-.04.08-.13.1.07.02.08.06.09.12l.05.43s-.08.03-.1.06c-.04.03,0,.06,0,.09.01.13,0,.24.04.37-.05.08-.05.17.03.24-.04.13-.02.25.01.38l.04.49c0,.06.1.13.15.14.1-.12-.12-.12-.02-.27ZM16.66,27.99c.03-.13.07-.26.03-.4-.02.14-.06.25-.03.4ZM48.13,27.98s-.09-.02-.1,0c-.09.36-.18.24-.22.29-.01.02,0,.06.02.06.16.02.28-.16.3-.36ZM48.42,28.26l-.07.07.09.09.07-.07-.09-.09ZM17.28,30.88s-.07-.06-.06-.09c0-.02.02-.05.04-.07.03.07.09.12.16.1-.04-.14-.02-.26-.08-.37,0,0-.03.02-.04.03l.04.26c-.11-.11-.11-.24-.14-.39-.01-.07-.08-.13.02-.21-.06-.12-.06-.25-.03-.38,0-.09-.05-.11-.1-.11-.16.01-.1.28-.04.56-.02.1,0,.19.09.26-.01.18.05.35.08.52.03.18.08.33.16.51.02.04-.04.16.06.19.01-.15-.07-.27-.09-.4s.04-.29-.05-.42ZM43.75,30.15v-.11c-.07.03-.05.07-.05.11,0,.03.05.02.05,0ZM17.68,31.68l-.1-.38-.02.02.06.32s0,.05.03.07c0,0,.05.01.04-.03ZM30.84,31.49s.07-.02.08-.04c0-.02,0-.06-.02-.07-.05.01-.08.09-.06.1ZM17.68,31.98c-.18.09-.13.36.01.44.15-.05.03-.17-.01-.44ZM17.84,32.35c.06-.15-.01-.38-.09-.35l.07.39s.08-.02.02-.05ZM17.8,32.82l.07-.33s-.15,0-.15.04c0,.11.04.21.08.29ZM18.01,33.22c-.02-.13-.05-.15-.01-.23.07-.15.05-.33-.06-.47,0,.1,0,.15,0,.24,0,.03.06.09.04.11l-.08.09c-.03.1.06.2.12.26ZM17.49,32.55l-.03.05.1.06.03-.05-.1-.06ZM18.15,33.15c.02-.13-.03-.19-.08-.27-.04.12,0,.22.08.27ZM18.25,33.59s-.06.01-.07-.01c-.01-.03,0-.07.03-.06,0,.03.03.05.04.04.02,0,.03-.03.03-.04,0-.02-.2-.14-.29-.14.09.17.05.32.14.26.03-.02-.01.05,0,.06.04.06.08.02.11,0,.03-.03.04-.09,0-.1ZM18.45,34.51c0-.13-.02-.24-.07-.35-.02.13-.01.25.07.35ZM38.27,34.84c-.02-.08-.07-.1-.13-.08.03.05.08.07.13.08ZM18.86,35.14c.07-.09.03-.24-.03-.31,0,.1-.04.12-.09.17-.06.05.07.18.12.15ZM28.86,35.16s-.01-.1-.06-.06c-.08.02-.08.07-.05.18.05-.03.07-.06.11-.12ZM19.18,36.22c.05-.15-.01-.28-.11-.43.05-.02.13-.12.09-.16-.11-.1-.24-.16-.33-.28v-.19c-.11.12-.02.25.04.37.13.23.21.47.29.71h.01ZM38.97,35.16l-.02.04.18.09.02-.04-.18-.09ZM28.6,35.48s.11-.1.08-.13c-.05,0-.09.02-.12.05-.02.02-.03.08.04.09ZM28.37,35.58c.05,0,.06-.1.03-.1-.05,0-.06.1-.03.1ZM40.09,35.76c-.06-.09-.12-.13-.19-.18-.04-.03-.13,0-.14.06.13.05.2.12.33.11ZM27.85,36.1s-.03-.07-.07-.11c-.04,0-.1.07-.03.13,0,0,.08.05.1-.03ZM27.65,36.15c-.1.02-.19.11-.25.18.05.05.12.03.14,0,.07-.09.14-.17.11-.19ZM19.19,36.23h-.01c.02.07.02.13.08.17.02-.08-.02-.13-.06-.17ZM19.37,36.73s.13-.05.14-.08c.02-.11-.03-.27-.11-.34-.01.07-.04.17-.11.16-.02,0-.06-.03-.06,0-.02.07.08.12.14.26ZM19.59,37.24v-.18s.03-.08.01-.11c-.01-.03-.07-.03-.1-.01-.09.05-.04.2.04.34l.04-.03ZM47.81,36.97s-.1,0-.09.03c0,.03,0,.06.03.1.03-.02.09-.1.07-.13ZM19.78,37.21l-.11.06.04.08.11-.06-.04-.08ZM19.58,37.26l-.04.02c.01.08.05.14.03.23-.07-.02-.11-.06-.19-.04l.08.15c.03.06.08.13.15.08-.06-.05-.09-.1-.07-.14.02-.02.09-.09.1-.05l.13.39.16.35.1.27c.04.1.06.24.22.28-.05-.24-.11-.46-.23-.65-.05-.07-.09-.1-.11-.19-.05-.22.04-.3-.1-.18-.08-.06-.06-.17-.09-.24l-.14-.29ZM19.77,38.17c0-.1.01-.17-.07-.24-.03-.02-.04-.1-.1-.11-.05.13.01.24.07.35.04.08.06.16.14.2.05-.07-.04-.14-.04-.19ZM19.84,38.59c.07-.09.02-.16-.01-.21-.01.08-.03.14.01.21ZM19.95,38.65s-.09.02-.06.04c.06.1.09.19.19.25-.03-.11-.06-.2-.12-.29ZM20.22,39.3c-.05-.02-.09,0-.1,0,.02.04.04.05.07.04.01,0,.04-.04.03-.05ZM46,39.39c-.05-.03-.24-.05-.27.03,0,.02.03.04.05.05.03.09.14.14.21.09.04-.03.04-.15,0-.17ZM20.76,41.02c0-.06-.02-.08-.06-.1-.04-.01-.1.04-.07.06.04.05.07.06.08.14.07-.03.06-.06.06-.11ZM20.88,41.31c.08-.11.12-.24.04-.39-.1.1-.14.25-.04.39ZM21,42.23l-.13-.1c.03.08,0,.1-.03.17.06-.04.09-.05.16-.07ZM20.73,42.41l-.09-.13s-.03.08,0,.11c.02.02.07.04.09.02ZM20.73,42.79c-.05-.02-.08-.06-.1-.06,0,.06.03.09.04.1.02.01.07-.03.06-.05ZM20.9,42.91c.09.06.13.02.13,0,0-.03,0-.07-.06-.1l-.07.11ZM21.78,43.64c.03-.05-.11-.16-.17-.12-.02.06.13.19.17.12ZM22.75,43.92s.02-.14,0-.15c-.06-.01-.07.04-.07.08,0,.03.01.1.08.07ZM22.32,43.9c.05-.04,0-.11-.06-.08s-.12.08-.13.16l.18-.08ZM22.55,44.12c.11,0,.12-.08.1-.15-.01-.05-.06-.1-.13-.07-.04.02-.07.08-.07.12s.05.1.1.1Z"/>
          <path class="cls-1" d="M16.4,28.82c-.13-.08-.13-.2-.11-.33,0-.08-.02-.16,0-.25.03-.15-.02-.31-.02-.47s0-.32-.08-.47l.08-.02c.06.1.07.19.08.3l.02.42c.01.22,0,.43.04.65v.16Z"/>
          <path class="cls-1" d="M16.72,29.77v-.17c.05-.04.08.01.08.06,0,.04.02.09-.08.11Z"/>
          <path class="cls-1" d="M17.57,20.66c.02.07-.07.08-.06.01,0-.04.05-.06.06-.01Z"/>
          <rect class="cls-1" x="16.87" y="28.05" width=".06" height=".14"/>
          <path class="cls-1" d="M19.44,36.61s-.02.04-.03.04-.03-.02-.03-.03c-.01-.01,0-.04.03-.05,0-.03.01-.02.02-.02,0,0,.01.03.01.05Z"/>
        </g>
      </g>
    </g>
  </g>
</svg>